<svg id="logo" xmlns="http://www.w3.org/2000/svg" width="73.239" height="37.749" viewBox="0 0 73.239 37.749">
  <g id="Group_7416" data-name="Group 7416">
    <path id="Path_9307" data-name="Path 9307" d="M71.519,124.053H31.776a1.074,1.074,0,1,0,0,2.147H70.483L54.462,142.22c.754-2.53.653-6.984-2.479-9.389-1.829-1.4-4.5-2.087-8.17-2.087H36.724a1.074,1.074,0,0,0-1.074,1.074v10.805l-4.106-11.176a1.074,1.074,0,0,0-1.008-.7H24.4a1.073,1.073,0,0,0-1.005.7l-4.344,11.576c-2.613-3.532-8.345-3.687-9.855-5.33a3,3,0,0,1,2.035-.384,10.407,10.407,0,0,1,4.763,1.291,1.074,1.074,0,0,0,1.4-.431c2.661-4.625,2.742-4.543,2.567-5.132a1.073,1.073,0,0,0-.543-.651c-5.485-2.782-13.931-3.162-17.267,2.012V126.2H26.766a1.074,1.074,0,1,0,0-2.147H1.718A1.72,1.72,0,0,0,0,125.771v34.957A1.073,1.073,0,0,0,1.074,161.8H26.766a1.074,1.074,0,0,0,0-2.147H2.147v-6.34c3.854,2.006,9.135,2.741,13.019.97a1.074,1.074,0,0,0,.973.62h6.434a1.073,1.073,0,0,0,1.02-.738l.756-2.3a13.482,13.482,0,0,0,6.071.02l.73,2.272a1.074,1.074,0,0,0,1.022.745h9.6l-4.75,4.75h-5.25a1.074,1.074,0,0,0,0,2.147H37.2a1.73,1.73,0,0,0,1.215-.5l34.316-34.313A1.719,1.719,0,0,0,71.519,124.053ZM3.333,147.245,2.147,149.6v-7.409c1.489,2.19,4.344,3.359,6.891,4.146.794.247,2.654.826,2.794,1.225-.012.659-1.038.756-1.692.771a8.789,8.789,0,0,1-5.3-1.526A1.074,1.074,0,0,0,3.333,147.245Zm40.41,5.693v-4.832a15.724,15.724,0,0,0,5.486-.654Zm1.212-6.98H42.669a1.073,1.073,0,0,0-1.074,1.074v5.725h-8.64l-.8-2.505a1.074,1.074,0,0,0-1.349-.694,11.222,11.222,0,0,1-6.812-.023,1.074,1.074,0,0,0-1.358.683l-.835,2.538H17.687l.165-.441a1.073,1.073,0,0,0-.391-1.256c-1.509-1.055-1.5,2.015-7.333,2.075a15.151,15.151,0,0,1-6.592-1.523l1.212-2.4a10.349,10.349,0,0,0,5.436,1.269c2.773-.067,3.77-1.515,3.795-2.88.076-4.364-10.926-2.4-10.8-9.422.078-5.149,7.094-7.248,14.232-4.351l-1.391,2.418c-4.325-1.864-8.97-1.353-9.019,1.435-.02,1.391,1.459,2.519,4.661,3.553,3.243,1.027,5.962,2.1,6.394,4.836a1.075,1.075,0,0,0,2.066.21l5.024-13.387h4.645l5.929,16.137a1.075,1.075,0,0,0,2.081-.37V132.889c8.176,0,14.9-.791,14.9,6.6C52.694,143.6,49.873,145.959,44.954,145.959Z" transform="translate(0 -124.053)" fill="#fff"/>
  </g>
</svg>
