<svg xmlns="http://www.w3.org/2000/svg" width="21.521" height="15.441" viewBox="0 0 21.521 15.441">
  <g id="book" transform="translate(0 -58.303)">
    <g id="book-2" data-name="book" transform="translate(0 58.303)">
      <g id="Group_6146" data-name="Group 6146" transform="translate(0 0)">
        <path id="Path_15455" data-name="Path 15455" d="M21.1,59.588H19.686V59.1a.417.417,0,0,0-.3-.417,11.751,11.751,0,0,0-3.008-.384,7.758,7.758,0,0,0-5.623,2.086A7.676,7.676,0,0,0,5.131,58.3a11.751,11.751,0,0,0-3.008.384.417.417,0,0,0-.3.417v.48H.417A.417.417,0,0,0,0,60V73.325a.416.416,0,0,0,.622.363,14.708,14.708,0,0,1,10.037-.834h.1a.418.418,0,0,0,.1,0,14.459,14.459,0,0,1,10.037.834.417.417,0,0,0,.626-.359V60.005A.417.417,0,0,0,21.1,59.588ZM.834,72.662V60.423h1V70.885a.417.417,0,0,0,.48.417,18.257,18.257,0,0,1,2.607-.209,10.821,10.821,0,0,1,3.563.538A15.336,15.336,0,0,0,.834,72.662Zm4.084-2.4a18.356,18.356,0,0,0-2.269.146V59.434a11.506,11.506,0,0,1,2.474-.275A6.811,6.811,0,0,1,10.329,61.2l.013,10.392A9.751,9.751,0,0,0,4.918,70.263ZM11.176,61.2a6.873,6.873,0,0,1,5.206-2.044,11.556,11.556,0,0,1,2.474.275V70.409a18.35,18.35,0,0,0-2.257-.15,9.833,9.833,0,0,0-5.423,1.331Zm9.507,11.459a15.339,15.339,0,0,0-7.663-1.03,10.847,10.847,0,0,1,3.579-.538,18.251,18.251,0,0,1,2.624.2.417.417,0,0,0,.48-.417V60.423h1Z" transform="translate(0 -58.303)" fill="#5d5d5d"/>
      </g>
    </g>
  </g>
</svg>
