<svg xmlns="http://www.w3.org/2000/svg" width="30.302" height="30.302" viewBox="0 0 30.302 30.302">
  <g id="check" transform="translate(-2 -1.2)">
    <g id="Layer_2" data-name="Layer 2" transform="translate(1 1.2)">
      <path id="Path_15458" data-name="Path 15458" d="M16.151,1.2A15.151,15.151,0,1,0,31.3,16.351,15.151,15.151,0,0,0,16.151,1.2ZM24.5,12.109,13.7,22.916a.273.273,0,0,1-.374,0L7.8,17.361a1.007,1.007,0,0,1,1.424-1.424l4.1,4.1a.273.273,0,0,0,.374,0l9.384-9.384A1.018,1.018,0,1,1,24.5,12.109Z" transform="translate(0 -1.2)" fill="#ff7962"/>
    </g>
  </g>
</svg>
