<svg xmlns="http://www.w3.org/2000/svg" width="19.575" height="14.661" viewBox="0 0 19.575 14.661">
  <g id="email" transform="translate(0 -64.266)" opacity="0.4">
    <path id="Path_8509" data-name="Path 8509" d="M11.423,176.842a2.944,2.944,0,0,1-3.272,0L.13,171.494c-.045-.03-.088-.061-.13-.092v8.763a1.8,1.8,0,0,0,1.8,1.8H17.773a1.8,1.8,0,0,0,1.8-1.8V171.4q-.064.048-.131.093Z" transform="translate(0 -103.04)" fill="#1a1a1a"/>
    <path id="Path_8510" data-name="Path 8510" d="M.767,67.5l8.021,5.348a1.8,1.8,0,0,0,2,0L18.808,67.5a1.717,1.717,0,0,0,.767-1.433,1.8,1.8,0,0,0-1.8-1.8H1.8a1.8,1.8,0,0,0-1.8,1.8A1.717,1.717,0,0,0,.767,67.5Z" fill="#1a1a1a"/>
  </g>
</svg>
