<svg id="eye" xmlns="http://www.w3.org/2000/svg" width="13.117" height="8.349" viewBox="0 0 13.117 8.349">
  <g id="Group_16937" data-name="Group 16937">
    <path id="Path_21654" data-name="Path 21654" d="M67.5,201.368a.509.509,0,0,1,.018-.461,7.449,7.449,0,0,1,2.746-2.857A7.114,7.114,0,0,1,74.007,197a7.226,7.226,0,0,1,3.76,1.051,7.54,7.54,0,0,1,2.728,2.857.14.14,0,0,1,.037.074.574.574,0,0,1-.018.461,7.585,7.585,0,0,1-2.746,2.857,7.22,7.22,0,0,1-7.5,0,7.405,7.405,0,0,1-2.728-2.857A.14.14,0,0,1,67.5,201.368Zm3.318-2.4a6.739,6.739,0,0,0-2.193,2.193,6.453,6.453,0,0,0,2.212,2.193,6,6,0,0,0,3.189.9,6.09,6.09,0,0,0,3.189-.9,6.459,6.459,0,0,0,2.175-2.175,6.46,6.46,0,0,0-2.193-2.212,6.188,6.188,0,0,0-6.377,0Z" transform="translate(-67.454 -197)" fill="#777"/>
    <path id="Path_21655" data-name="Path 21655" d="M298.341,296a2.357,2.357,0,0,1,1.659.7,2.3,2.3,0,0,1,.682,1.64A2.34,2.34,0,0,1,300,300h0a2.34,2.34,0,0,1-1.659.682A2.3,2.3,0,0,1,296.7,300a2.357,2.357,0,0,1-.7-1.659,2.313,2.313,0,0,1,.7-1.64h0A2.313,2.313,0,0,1,298.341,296Zm.885,1.456a1.239,1.239,0,0,0-.885-.35,1.3,1.3,0,0,0-.885.35h0a1.3,1.3,0,0,0-.35.885,1.239,1.239,0,0,0,.35.885,1.323,1.323,0,0,0,.885.369,1.259,1.259,0,0,0,1.253-1.253A1.323,1.323,0,0,0,299.225,297.456Z" transform="translate(-291.788 -294.175)" fill="#777"/>
    <circle id="Ellipse_1721" data-name="Ellipse 1721" cx="0.5" cy="0.5" r="0.5" transform="translate(6.263 3.674)" fill="#777"/>
  </g>
</svg>
