<svg xmlns="http://www.w3.org/2000/svg" width="20.415" height="10.638" viewBox="0 0 20.415 10.638">
  <g id="key" transform="translate(20.415) rotate(90)" opacity="0.4">
    <path id="Path_8511" data-name="Path 8511" d="M10.638,15.1a5.319,5.319,0,1,1-6.49-5.189V1.171a1.171,1.171,0,0,1,2.343,0v.376H8.067a.8.8,0,0,1,.816.774.8.8,0,0,1-.816.774H8.035a.272.272,0,0,0-.272.272V3.8a.272.272,0,0,0,.272.272h.032a.775.775,0,1,1,0,1.549H6.49V9.907A5.328,5.328,0,0,1,10.638,15.1ZM5.319,12.1A2.994,2.994,0,1,0,8.313,15.1,2.994,2.994,0,0,0,5.319,12.1Z" transform="translate(0)" fill="#1a1a1a"/>
  </g>
</svg>
