<svg xmlns="http://www.w3.org/2000/svg" width="18.01" height="19.404" viewBox="0 0 18.01 19.404">
  <g id="logout" transform="translate(-17.6)" opacity="0.7">
    <g id="Group_6145" data-name="Group 6145" transform="translate(17.6 0)">
      <g id="Group_6144" data-name="Group 6144">
        <g id="Group_6143" data-name="Group 6143">
          <path id="Path_8935" data-name="Path 8935" d="M133.411,133.9l.008-.008a.3.3,0,0,0,.032-.044s0-.008.008-.012.02-.032.028-.048a.014.014,0,0,1,0-.008c.008-.016.016-.032.024-.051,0,0,0,0,0-.008s.012-.036.02-.055c0,0,0-.008,0-.008a.278.278,0,0,0,.012-.055.036.036,0,0,1,0-.02c0-.016,0-.032.008-.048a.573.573,0,0,0,0-.135.2.2,0,0,0-.008-.048.036.036,0,0,0,0-.02c0-.02-.008-.036-.012-.055,0,0,0-.008,0-.008a.31.31,0,0,0-.02-.055s0,0,0-.008-.016-.036-.024-.051a.014.014,0,0,0,0-.008.3.3,0,0,0-.028-.048s0-.008-.008-.012a.411.411,0,0,0-.032-.044l-.008-.008a.562.562,0,0,0-.048-.051l-3.917-3.913a.681.681,0,0,0-.962.962l2.757,2.757h-10.96a.679.679,0,1,0,0,1.359h10.964l-2.737,2.737a.679.679,0,1,0,.959.962l3.894-3.893C133.38,133.934,133.4,133.918,133.411,133.9Z" transform="translate(-115.56 -123.771)" fill="#1a1a1a"/>
          <path id="Path_8936" data-name="Path 8936" d="M21.288,1.359h5.07a.679.679,0,1,0,0-1.359h-5.07A3.694,3.694,0,0,0,17.6,3.688V15.717A3.694,3.694,0,0,0,21.288,19.4h4.987a.679.679,0,1,0,0-1.359H21.288a2.333,2.333,0,0,1-2.329-2.329V3.688A2.333,2.333,0,0,1,21.288,1.359Z" transform="translate(-17.6 0)" fill="#1a1a1a"/>
        </g>
      </g>
    </g>
  </g>
</svg>
