<svg xmlns="http://www.w3.org/2000/svg" width="18.68" height="23" viewBox="0 0 18.68 23">
  <g id="trash" transform="translate(0.003 0.001)" opacity="0.6">
    <path id="Path_15462" data-name="Path 15462" d="M222.937,154.7a.539.539,0,0,0-.539.539v10.18a.539.539,0,1,0,1.077,0v-10.18A.539.539,0,0,0,222.937,154.7Zm0,0" transform="translate(-210.422 -146.372)" fill="#1a1a1a"/>
    <path id="Path_15463" data-name="Path 15463" d="M104.937,154.7a.539.539,0,0,0-.539.539v10.18a.539.539,0,1,0,1.077,0v-10.18A.539.539,0,0,0,104.937,154.7Zm0,0" transform="translate(-98.778 -146.372)" fill="#1a1a1a"/>
    <path id="Path_15464" data-name="Path 15464" d="M1.527,6.846V20.117a2.972,2.972,0,0,0,.79,2.05A2.653,2.653,0,0,0,4.241,23H14.432a2.652,2.652,0,0,0,1.925-.832,2.972,2.972,0,0,0,.79-2.05V6.846A2.058,2.058,0,0,0,16.619,2.8H13.861V2.126A2.116,2.116,0,0,0,11.728,0H6.945A2.116,2.116,0,0,0,4.812,2.126V2.8H2.054a2.058,2.058,0,0,0-.528,4.046ZM14.432,21.921H4.241a1.706,1.706,0,0,1-1.637-1.8V6.893H16.07V20.117a1.706,1.706,0,0,1-1.637,1.8ZM5.89,2.126a1.038,1.038,0,0,1,1.056-1.05h4.783a1.038,1.038,0,0,1,1.056,1.05V2.8H5.89ZM2.054,3.877H16.619a.97.97,0,0,1,0,1.939H2.054a.97.97,0,1,1,0-1.939Zm0,0" transform="translate(0 0)" fill="#1a1a1a"/>
    <path id="Path_15465" data-name="Path 15465" d="M163.937,154.7a.539.539,0,0,0-.539.539v10.18a.539.539,0,1,0,1.077,0v-10.18A.539.539,0,0,0,163.937,154.7Zm0,0" transform="translate(-154.6 -146.372)" fill="#1a1a1a"/>
  </g>
</svg>
