<svg xmlns="http://www.w3.org/2000/svg" width="44.891" height="35.242" viewBox="0 0 44.891 35.242">
  <g id="upload" transform="translate(0 -55.032)">
    <g id="Group_7503" data-name="Group 7503" transform="translate(0 55.032)">
      <g id="Group_7502" data-name="Group 7502" transform="translate(0)">
        <g id="Group_7501" data-name="Group 7501">
          <path id="Path_15466" data-name="Path 15466" d="M37.4,66.709A15.43,15.43,0,0,0,7.048,69.346a8.416,8.416,0,0,0,1.4,16.72h7.013V83.26H8.451a5.611,5.611,0,0,1,0-11.221,1.4,1.4,0,0,0,1.4-1.4,12.624,12.624,0,0,1,25.01-2.455A1.4,1.4,0,0,0,36.055,69.3,7.013,7.013,0,0,1,35.1,83.26H29.491v2.805H35.1a9.819,9.819,0,0,0,2.3-19.357Z" transform="translate(0 -55.032)" fill="#ff7962"/>
          <path id="Path_15467" data-name="Path 15467" d="M186.646,249.419l-5.611,5.611,1.978,1.978,3.226-3.212v13.452h2.805V253.8l3.212,3.212,1.978-1.978-5.611-5.611A1.4,1.4,0,0,0,186.646,249.419Z" transform="translate(-165.164 -232.005)" fill="#ff7962"/>
        </g>
      </g>
    </g>
  </g>
</svg>
